<svg xmlns:dc="http://purl.org/dc/elements/1.1/" xmlns:cc="http://creativecommons.org/ns#" xmlns:rdf="http://www.w3.org/1999/02/22-rdf-syntax-ns#" xmlns:svg="http://www.w3.org/2000/svg" xmlns="http://www.w3.org/2000/svg" xmlns:sodipodi="http://sodipodi.sourceforge.net/DTD/sodipodi-0.dtd" xmlns:inkscape="http://www.inkscape.org/namespaces/inkscape" version="1.1" x="0px" y="0px" viewBox="0 0 100 125"><g transform="translate(0,-952.36218)"><path style="text-indent:0;text-transform:none;direction:ltr;block-progression:tb;baseline-shift:baseline;color:#000000;enable-background:accumulate;" d="m 27.102482,958.90826 a 1.10011,1.10011 0 0 0 -1.093,1.125 l 0,7.1876 -4.688,0 c -3.212,0 -5.844,2.6004 -5.844,5.8124 l 0,4.875 -6.9999998,0 a 1.10011,1.10011 0 0 0 -0.125,0 1.1111591,1.1111591 0 0 0 0.125,2.2188 l 6.9999998,0 0,4.4375 -6.9999998,0 a 1.10011,1.10011 0 0 0 -0.125,0 1.1111092,1.1111092 0 0 0 0.125,2.2187 l 6.9999998,0 0,4.4376 -6.9999998,0 a 1.10011,1.10011 0 0 0 -0.125,0 1.1111092,1.1111092 0 1 0 0.125,2.2187 l 6.9999998,0 0,4.4375 -6.9999998,0 a 1.10011,1.10011 0 0 0 -0.125,0 1.1111591,1.1111591 0 1 0 0.125,2.21884 l 6.9999998,0 0,4.4374 -6.9999998,0 a 1.10011,1.10011 0 0 0 -0.125,0 1.1111591,1.1111591 0 0 0 0.125,2.2188 l 6.9999998,0 0,4.4375 -6.9999998,0 a 1.10011,1.10011 0 0 0 -0.125,0 1.10011,1.10011 0 0 0 0.125,2.1875 l 6.9999998,0 0,4.4688 -6.9999998,0 a 1.10011,1.10011 0 0 0 -0.125,0 1.10011,1.10011 0 0 0 0.125,2.1874 l 6.9999998,0 0,4.4688 -6.9999998,0 a 1.10011,1.10011 0 0 0 -0.125,0 1.10011,1.10011 0 0 0 0.125,2.1875 l 6.9999998,0 0,4.875 c 0,3.212 2.632,5.8437 5.844,5.8437 l 4.688,0 0,7.1876 a 1.10011,1.10011 0 1 0 2.187,0 l 0,-7.1876 4.344,0 0,7.1876 a 1.10011,1.10011 0 1 0 2.187,0 l 0,-7.1876 4.344,0 0,7.1876 a 1.10011,1.10011 0 1 0 2.188,0 l 0,-7.1876 4.343,0 0,7.1876 a 1.10011,1.10011 0 1 0 2.188,0 l 0,-7.1876 4.343,0 0,7.1876 a 1.10011,1.10011 0 1 0 2.188,0 l 0,-7.1876 4.344,0 0,7.1876 a 1.109,1.109 0 0 0 2.218,0 l 0,-7.1876 4.313,0 0,7.1876 a 1.1095,1.1095 0 0 0 2.219,0 l 0,-7.1876 4.312,0 0,7.1876 a 1.1095,1.1095 0 0 0 2.219,0 l 0,-7.1876 4.656,0 c 3.212,0 5.844,-2.6317 5.844,-5.8437 l 0,-4.875 7.031,0 a 1.10011,1.10011 0 1 0 0,-2.1875 l -7.031,0 0,-4.4688 7.031,0 a 1.10011,1.10011 0 1 0 0,-2.1874 l -7.031,0 0,-4.4688 7.031,0 a 1.10011,1.10011 0 1 0 0,-2.1875 l -7.031,0 0,-4.4375 7.031,0 a 1.1094,1.1094 0 0 0 0,-2.2188 l -7.031,0 0,-4.4374 7.031,0 a 1.1094,1.1094 0 0 0 0,-2.21884 l -7.031,0 0,-4.4375 7.031,0 a 1.10935,1.10935 0 0 0 0,-2.2187 l -7.031,0 0,-4.4376 7.031,0 a 1.10935,1.10935 0 0 0 0,-2.2187 l -7.031,0 0,-4.4375 7.031,0 a 1.1094,1.1094 0 0 0 0,-2.2188 l -7.031,0 0,-4.875 c 0,-3.2119 -2.632,-5.8124 -5.844,-5.8124 l -4.656,0 0,-7.1876 a 1.10011,1.10011 0 0 0 -1.125,-1.125 1.10011,1.10011 0 0 0 -1.094,1.125 l 0,7.1876 -4.312,0 0,-7.1876 a 1.10011,1.10011 0 0 0 -1.125,-1.125 1.10011,1.10011 0 0 0 -1.094,1.125 l 0,7.1876 -4.313,0 0,-7.1876 a 1.10011,1.10011 0 0 0 -1.124,-1.125 1.10011,1.10011 0 0 0 -1.094,1.125 l 0,7.1876 -4.344,0 0,-7.1876 a 1.10011,1.10011 0 0 0 -1.094,-1.125 1.10011,1.10011 0 0 0 -1.094,1.125 l 0,7.1876 -4.343,0 0,-7.1876 a 1.10011,1.10011 0 0 0 -1.094,-1.125 1.10011,1.10011 0 0 0 -1.094,1.125 l 0,7.1876 -4.343,0 0,-7.1876 a 1.10011,1.10011 0 0 0 -1.094,-1.125 1.10011,1.10011 0 0 0 -1.094,1.125 l 0,7.1876 -4.344,0 0,-7.1876 a 1.10011,1.10011 0 0 0 -1.094,-1.125 1.10011,1.10011 0 0 0 -1.093,1.125 l 0,7.1876 -4.344,0 0,-7.1876 a 1.10011,1.10011 0 0 0 -1.094,-1.125 z m -5.781,10.5 57.281,0 c 2.032,0 3.657,1.5938 3.657,3.625 l 0,58.53134 c 0,2.0313 -1.625,3.6563 -3.657,3.6563 l -57.281,0 c -2.031,0 -3.625,-1.625 -3.625,-3.6563 l 0,-58.53134 c 0,-2.0312 1.594,-3.625 3.625,-3.625 z m 5.688,8.5 a 1.10011,1.10011 0 0 0 -1,1.125 l 0,46.56264 a 1.10011,1.10011 0 0 0 1.093,1.0937 l 45.719,0 a 1.10011,1.10011 0 0 0 1.125,-1.0937 l 0,-46.56264 a 1.10011,1.10011 0 0 0 -1.125,-1.125 l -45.719,0 a 1.10011,1.10011 0 0 0 -0.09,0 z m 1.187,2.2188 43.531,0 0,44.37504 -43.531,0 0,-44.37504 z" fill="#000000" fill-opacity="1" stroke="none" marker="none" visibility="visible" display="inline" overflow="visible"/></g><text x="0" y="115" fill="#000000" font-size="5px" font-weight="bold" font-family="'Helvetica Neue', Helvetica, Arial-Unicode, Arial, Sans-serif">Created by Artdabana@Design</text><text x="0" y="120" fill="#000000" font-size="5px" font-weight="bold" font-family="'Helvetica Neue', Helvetica, Arial-Unicode, Arial, Sans-serif">from the Noun Project</text></svg>